<svg xmlns="http://www.w3.org/2000/svg" width="360" height="178" viewBox="0 0 360 178" fill="none" role="img" aria-label="Most Used Languages">
<style>text{font-family:"Segoe UI",Ubuntu,Sans-Serif;}</style>
<rect x="0.5" y="0.5" width="359" height="177" rx="8" fill="#0D1117"/>
<text x="25" y="30" fill="#00FFAA" font-size="16" font-weight="600">Most Used Languages</text>
<rect x="25" y="44" rx="4" width="310" height="8" fill="#21262d"/>
<mask id="m"><rect x="25" y="44" rx="4" width="310" height="8" fill="#fff"/></mask>
<g mask="url(#m)">
<rect x="25.00" y="44" width="288.24" height="8" fill="#e34c26"/>
<rect x="313.24" y="44" width="10.42" height="8" fill="#3572A5"/>
<rect x="323.66" y="44" width="9.34" height="8" fill="#f1e05a"/>
<rect x="333.00" y="44" width="1.01" height="8" fill="#3178c6"/>
<rect x="334.00" y="44" width="0.74" height="8" fill="#89e051"/>
<rect x="334.74" y="44" width="0.14" height="8" fill="#c6538c"/>
<rect x="334.88" y="44" width="0.11" height="8" fill="#427819"/>
<rect x="334.99" y="44" width="0.01" height="8" fill="#384d54"/>
</g>
<circle cx="30" cy="74" r="5" fill="#e34c26"/>
<text x="43" y="78" fill="#C9D1D9" font-size="12">HTML <tspan fill="#8b949e">93.0%</tspan></text>
<circle cx="190" cy="74" r="5" fill="#3572A5"/>
<text x="203" y="78" fill="#C9D1D9" font-size="12">Python <tspan fill="#8b949e">3.4%</tspan></text>
<circle cx="30" cy="100" r="5" fill="#f1e05a"/>
<text x="43" y="104" fill="#C9D1D9" font-size="12">JavaScript <tspan fill="#8b949e">3.0%</tspan></text>
<circle cx="190" cy="100" r="5" fill="#3178c6"/>
<text x="203" y="104" fill="#C9D1D9" font-size="12">TypeScript <tspan fill="#8b949e">0.3%</tspan></text>
<circle cx="30" cy="126" r="5" fill="#89e051"/>
<text x="43" y="130" fill="#C9D1D9" font-size="12">Shell <tspan fill="#8b949e">0.2%</tspan></text>
<circle cx="190" cy="126" r="5" fill="#c6538c"/>
<text x="203" y="130" fill="#C9D1D9" font-size="12">SCSS <tspan fill="#8b949e">0.0%</tspan></text>
<circle cx="30" cy="152" r="5" fill="#427819"/>
<text x="43" y="156" fill="#C9D1D9" font-size="12">Makefile <tspan fill="#8b949e">0.0%</tspan></text>
<circle cx="190" cy="152" r="5" fill="#384d54"/>
<text x="203" y="156" fill="#C9D1D9" font-size="12">Dockerfile <tspan fill="#8b949e">0.0%</tspan></text>
</svg>