<svg xmlns="http://www.w3.org/2000/svg" width="360" height="178" viewBox="0 0 360 178" fill="none" role="img" aria-label="Most Used Languages">
<style>text{font-family:"Segoe UI",Ubuntu,Sans-Serif;}</style>
<rect x="0.5" y="0.5" width="359" height="177" rx="8" fill="#0D1117"/>
<text x="25" y="30" fill="#00FFAA" font-size="16" font-weight="600">Most Used Languages</text>
<rect x="25" y="44" rx="4" width="310" height="8" fill="#21262d"/>
<mask id="m"><rect x="25" y="44" rx="4" width="310" height="8" fill="#fff"/></mask>
<g mask="url(#m)">
<rect x="25.00" y="44" width="278.43" height="8" fill="#e34c26"/>
<rect x="303.43" y="44" width="10.63" height="8" fill="#00B4AB"/>
<rect x="314.06" y="44" width="10.50" height="8" fill="#3572A5"/>
<rect x="324.56" y="44" width="5.26" height="8" fill="#3178c6"/>
<rect x="329.82" y="44" width="1.81" height="8" fill="#4F5D95"/>
<rect x="331.63" y="44" width="1.62" height="8" fill="#f1e05a"/>
<rect x="333.25" y="44" width="0.95" height="8" fill="#f34b7d"/>
<rect x="334.20" y="44" width="0.80" height="8" fill="#858585"/>
</g>
<circle cx="30" cy="74" r="5" fill="#e34c26"/>
<text x="43" y="78" fill="#C9D1D9" font-size="12">HTML <tspan fill="#8b949e">89.8%</tspan></text>
<circle cx="190" cy="74" r="5" fill="#00B4AB"/>
<text x="203" y="78" fill="#C9D1D9" font-size="12">Dart <tspan fill="#8b949e">3.4%</tspan></text>
<circle cx="30" cy="100" r="5" fill="#3572A5"/>
<text x="43" y="104" fill="#C9D1D9" font-size="12">Python <tspan fill="#8b949e">3.4%</tspan></text>
<circle cx="190" cy="100" r="5" fill="#3178c6"/>
<text x="203" y="104" fill="#C9D1D9" font-size="12">TypeScript <tspan fill="#8b949e">1.7%</tspan></text>
<circle cx="30" cy="126" r="5" fill="#4F5D95"/>
<text x="43" y="130" fill="#C9D1D9" font-size="12">PHP <tspan fill="#8b949e">0.6%</tspan></text>
<circle cx="190" cy="126" r="5" fill="#f1e05a"/>
<text x="203" y="130" fill="#C9D1D9" font-size="12">JavaScript <tspan fill="#8b949e">0.5%</tspan></text>
<circle cx="30" cy="152" r="5" fill="#f34b7d"/>
<text x="43" y="156" fill="#C9D1D9" font-size="12">C++ <tspan fill="#8b949e">0.3%</tspan></text>
<circle cx="190" cy="152" r="5" fill="#858585"/>
<text x="203" y="156" fill="#C9D1D9" font-size="12">CMake <tspan fill="#8b949e">0.3%</tspan></text>
</svg>